<svg aria-hidden="true" style="width:0;height:0;position:absolute;overflow:hidden" xmlns="http://www.w3.org/2000/svg"><defs><symbol id="icon-search" viewBox="0 0 32 32"><path d="m31.008 27.231-7.58-6.447c-.784-.705-1.622-1.029-2.299-.998a11.954 11.954 0 0 0 2.87-7.787c0-6.627-5.373-12-12-12s-12 5.373-12 12 5.373 12 12 12c2.972 0 5.691-1.081 7.787-2.87-.031.677.293 1.515.998 2.299l6.447 7.58c1.104 1.226 2.907 1.33 4.007.23s.997-2.903-.23-4.007zM12 20a8 8 0 1 1 0-16 8 8 0 0 1 0 16z"/></symbol><symbol id="icon-home" viewBox="0 0 32 32"><path d="m32 19-6-6V4h-4v5l-6-6L0 19v1h4v10h10v-6h4v6h10V20h4z"/></symbol><symbol id="icon-contrast" viewBox="0 0 32 32"><path d="M16 0C7.163 0 0 7.163 0 16s7.163 16 16 16 16-7.163 16-16S24.837 0 16 0zM4 16C4 9.373 9.373 4 16 4v24C9.373 28 4 22.627 4 16z"/></symbol><symbol id="icon-double-up-arrow" viewBox="0 0 32 32"><path d="M3.958 31.746c.877 0 1.764-.29 2.496-.89l9.499-7.739 9.592 7.814a3.954 3.954 0 0 0 5.566-.567 3.957 3.957 0 0 0-.567-5.566l-12.091-9.852a3.954 3.954 0 0 0-4.999 0L1.459 24.722a3.956 3.956 0 0 0 2.5 7.023z"/><path d="M3.958 17.868c.877 0 1.764-.29 2.496-.89l9.499-7.739 9.592 7.815a3.954 3.954 0 0 0 5.566-.567 3.957 3.957 0 0 0-.567-5.566L18.453 1.069a3.954 3.954 0 0 0-4.999 0L1.459 10.842a3.957 3.957 0 0 0 2.5 7.026z"/></symbol><symbol id="icon-pixabay-logo-old" viewBox="0 0 122 32"><path d="M9.043 7.207c-2.501.062-4.58.921-6.235 2.577S.294 13.518.231 16.019v15.932h3.501V24.87h5.311c2.503-.064 4.588-.929 6.255-2.596s2.532-3.752 2.596-6.255c-.064-2.501-.929-4.58-2.596-6.235S11.546 7.27 9.043 7.207zM3.732 21.369v-5.35c.037-1.512.553-2.766 1.549-3.762s2.25-1.512 3.762-1.549c1.531.037 2.796.553 3.796 1.549s1.518 2.25 1.554 3.762c-.036 1.531-.554 2.796-1.554 3.796s-2.265 1.518-3.796 1.554zM20.131 24.792h3.462V7.129h-3.462z"/><path fill="#f80" style="fill:var(--color2,#f80)" d="m39.363 24.831-4.54-5.761-4.077 5.761H25.86l6.785-9.046-6.24-8.633h4.738l3.731 5.398 4.16-5.398h4.705l-6.785 8.633 7.412 9.046z"/><path d="M53.276 7.129c-2.503.062-4.588.921-6.255 2.577s-2.532 3.734-2.596 6.235c.064 2.503.929 4.588 2.596 6.255s3.752 2.532 6.255 2.596h8.812v-8.851c-.062-2.501-.921-4.58-2.577-6.235s-3.734-2.514-6.235-2.577zm0 14.162c-1.531-.036-2.796-.554-3.796-1.554s-1.518-2.265-1.554-3.796c.036-1.512.554-2.766 1.554-3.762s2.265-1.512 3.796-1.549c1.512.037 2.766.553 3.762 1.549s1.512 2.25 1.549 3.762v5.35zM67.712 7.207V.126h-3.501v15.893c.064 2.503.929 4.588 2.596 6.255s3.752 2.532 6.255 2.596c2.501-.064 4.58-.929 6.235-2.596s2.514-3.752 2.577-6.255c-.062-2.501-.921-4.58-2.577-6.235s-3.734-2.514-6.235-2.577zm5.35 14.162c-1.531-.036-2.796-.554-3.796-1.554s-1.518-2.265-1.554-3.796v-5.311h5.35c1.512.037 2.766.553 3.762 1.549s1.512 2.25 1.549 3.762c-.037 1.531-.553 2.796-1.549 3.796s-2.25 1.518-3.762 1.554zM92.846 7.129c-2.503.062-4.588.921-6.255 2.577s-2.532 3.734-2.596 6.235c.064 2.503.929 4.588 2.596 6.255s3.752 2.532 6.255 2.596h8.812v-8.851c-.062-2.501-.921-4.58-2.577-6.235s-3.734-2.514-6.235-2.577zm0 14.162c-1.531-.036-2.796-.554-3.796-1.554s-1.518-2.265-1.554-3.796c.036-1.512.554-2.766 1.554-3.762s2.265-1.512 3.796-1.549c1.512.037 2.766.553 3.762 1.549s1.512 2.25 1.549 3.762v5.35zM117.942 7.168v8.812c-.037 1.531-.553 2.796-1.549 3.796s-2.25 1.518-3.762 1.554c-1.531-.036-2.796-.554-3.796-1.554s-1.518-2.265-1.554-3.796V7.168h-3.501v8.812c.064 2.503.929 4.588 2.596 6.255s3.752 2.532 6.255 2.596c1.008-.005 1.962-.163 2.862-.477s1.716-.758 2.449-1.333v.039c-.037 1.531-.553 2.796-1.549 3.796s-2.25 1.518-3.762 1.554h-1.77v3.501h1.77c2.501-.064 4.58-.929 6.235-2.596s2.514-3.752 2.577-6.255V7.167z"/></symbol><symbol id="icon-search" viewBox="0 0 32 32"><path d="m31.008 27.231-7.58-6.447c-.784-.705-1.622-1.029-2.299-.998a11.954 11.954 0 0 0 2.87-7.787c0-6.627-5.373-12-12-12s-12 5.373-12 12 5.373 12 12 12c2.972 0 5.691-1.081 7.787-2.87-.031.677.293 1.515.998 2.299l6.447 7.58c1.104 1.226 2.907 1.33 4.007.23s.997-2.903-.23-4.007zM12 20a8 8 0 1 1 0-16 8 8 0 0 1 0 16z"/></symbol></defs></svg>