<svg aria-hidden="true" style="position: absolute; width: 0; height: 0; overflow: hidden;" version="1.1" xmlns="http://www.w3.org/2000/svg" xmlns:xlink="http://www.w3.org/1999/xlink">
<defs>

    <!-- Search -->
    <symbol id="icon-search" viewBox="0 0 32 32">
        <path d="M31.008 27.231l-7.58-6.447c-0.784-0.705-1.622-1.029-2.299-0.998 1.789-2.096 2.87-4.815 2.87-7.787 0-6.627-5.373-12-12-12s-12 5.373-12 12 5.373 12 12 12c2.972 0 5.691-1.081 7.787-2.87-0.031 0.677 0.293 1.515 0.998 2.299l6.447 7.58c1.104 1.226 2.907 1.33 4.007 0.23s0.997-2.903-0.23-4.007zM12 20c-4.418 0-8-3.582-8-8s3.582-8 8-8 8 3.582 8 8-3.582 8-8 8z"></path>
    </symbol>

    <!-- Home -->
    <symbol id="icon-home" viewBox="0 0 32 32">
        <path d="M32 19l-6-6v-9h-4v5l-6-6-16 16v1h4v10h10v-6h4v6h10v-10h4z"></path>
    </symbol>

    <!-- Light / dark  -->
    <symbol id="icon-contrast" viewBox="0 0 32 32">
        <path d="M16 0c-8.837 0-16 7.163-16 16s7.163 16 16 16 16-7.163 16-16-7.163-16-16-16zM4 16c0-6.627 5.373-12 12-12v24c-6.627 0-12-5.373-12-12z"></path>
    </symbol>

    <!-- Scroll up -->
    <symbol id="icon-double-up-arrow" viewBox="0 0 32 32">
        <path d="M3.958 31.746c0.877 0 1.764-0.29 2.496-0.89l9.499-7.739 9.592 7.814c0.735 0.597 1.619 0.89 2.496 0.89 1.147 0 2.288-0.498 3.070-1.457 1.382-1.695 1.124-4.188-0.567-5.566l-12.091-9.852c-1.454-1.187-3.545-1.187-4.999 0l-11.995 9.776c-1.695 1.378-1.949 3.871-0.57 5.566 0.785 0.959 1.922 1.457 3.070 1.457z"></path>
        <path d="M3.958 17.868c0.877 0 1.764-0.29 2.496-0.89l9.499-7.739 9.592 7.815c0.735 0.597 1.619 0.89 2.496 0.89 1.147 0 2.288-0.498 3.070-1.457 1.382-1.695 1.124-4.188-0.567-5.566l-12.091-9.852c-1.454-1.187-3.545-1.187-4.999 0l-11.995 9.773c-1.695 1.382-1.949 3.874-0.57 5.569 0.785 0.959 1.922 1.457 3.070 1.457z"></path>
    </symbol>

    <!-- Pixabay logo old -->
    <symbol id="icon-pixabay-logo-old" viewBox="0 0 122 32">
        <path d="M9.043 7.207c-2.501 0.062-4.58 0.921-6.235 2.577s-2.514 3.734-2.577 6.235v15.932h3.501v-7.081h5.311c2.503-0.064 4.588-0.929 6.255-2.596s2.532-3.752 2.596-6.255c-0.064-2.501-0.929-4.58-2.596-6.235s-3.752-2.514-6.255-2.577zM3.732 21.369v-5.35c0.037-1.512 0.553-2.766 1.549-3.762s2.25-1.512 3.762-1.549c1.531 0.037 2.796 0.553 3.796 1.549s1.518 2.25 1.554 3.762c-0.036 1.531-0.554 2.796-1.554 3.796s-2.265 1.518-3.796 1.554z"></path>
        <path d="M20.131 24.792h3.462v-17.663h-3.462z"></path>
        <path fill="#f80" style="fill: var(--color2, #f80)" d="M39.363 24.831l-4.54-5.761-4.077 5.761h-4.886l6.785-9.046-6.24-8.633h4.738l3.731 5.398 4.16-5.398h4.705l-6.785 8.633 7.412 9.046z"></path>
        <path d="M53.276 7.129c-2.503 0.062-4.588 0.921-6.255 2.577s-2.532 3.734-2.596 6.235c0.064 2.503 0.929 4.588 2.596 6.255s3.752 2.532 6.255 2.596h8.812v-8.851c-0.062-2.501-0.921-4.58-2.577-6.235s-3.734-2.514-6.235-2.577zM53.276 21.291c-1.531-0.036-2.796-0.554-3.796-1.554s-1.518-2.265-1.554-3.796c0.036-1.512 0.554-2.766 1.554-3.762s2.265-1.512 3.796-1.549c1.512 0.037 2.766 0.553 3.762 1.549s1.512 2.25 1.549 3.762v5.35z"></path>
        <path d="M67.712 7.207v-7.081h-3.501v15.893c0.064 2.503 0.929 4.588 2.596 6.255s3.752 2.532 6.255 2.596c2.501-0.064 4.58-0.929 6.235-2.596s2.514-3.752 2.577-6.255c-0.062-2.501-0.921-4.58-2.577-6.235s-3.734-2.514-6.235-2.577zM73.062 21.369c-1.531-0.036-2.796-0.554-3.796-1.554s-1.518-2.265-1.554-3.796v-5.311h5.35c1.512 0.037 2.766 0.553 3.762 1.549s1.512 2.25 1.549 3.762c-0.037 1.531-0.553 2.796-1.549 3.796s-2.25 1.518-3.762 1.554z"></path>
        <path d="M92.846 7.129c-2.503 0.062-4.588 0.921-6.255 2.577s-2.532 3.734-2.596 6.235c0.064 2.503 0.929 4.588 2.596 6.255s3.752 2.532 6.255 2.596h8.812v-8.851c-0.062-2.501-0.921-4.58-2.577-6.235s-3.734-2.514-6.235-2.577zM92.846 21.291c-1.531-0.036-2.796-0.554-3.796-1.554s-1.518-2.265-1.554-3.796c0.036-1.512 0.554-2.766 1.554-3.762s2.265-1.512 3.796-1.549c1.512 0.037 2.766 0.553 3.762 1.549s1.512 2.25 1.549 3.762v5.35z"></path>
        <path d="M117.942 7.168v8.812c-0.037 1.531-0.553 2.796-1.549 3.796s-2.25 1.518-3.762 1.554c-1.531-0.036-2.796-0.554-3.796-1.554s-1.518-2.265-1.554-3.796v-8.812h-3.501v8.812c0.064 2.503 0.929 4.588 2.596 6.255s3.752 2.532 6.255 2.596c1.008-0.005 1.962-0.163 2.862-0.477s1.716-0.758 2.449-1.333v0.039c-0.037 1.531-0.553 2.796-1.549 3.796s-2.25 1.518-3.762 1.554h-1.77v3.501h1.77c2.501-0.064 4.58-0.929 6.235-2.596s2.514-3.752 2.577-6.255v-15.893z"></path>
        </symbol>
        <symbol id="icon-search" viewBox="0 0 32 32">
        <path d="M31.008 27.231l-7.58-6.447c-0.784-0.705-1.622-1.029-2.299-0.998 1.789-2.096 2.87-4.815 2.87-7.787 0-6.627-5.373-12-12-12s-12 5.373-12 12 5.373 12 12 12c2.972 0 5.691-1.081 7.787-2.87-0.031 0.677 0.293 1.515 0.998 2.299l6.447 7.58c1.104 1.226 2.907 1.33 4.007 0.23s0.997-2.903-0.23-4.007zM12 20c-4.418 0-8-3.582-8-8s3.582-8 8-8 8 3.582 8 8-3.582 8-8 8z"></path>
    </symbol>
</defs>
</svg>
